<svg xmlns="http://www.w3.org/2000/svg" data-name="Layer 1" viewBox="0 0 100 125" x="0px" y="0px"><title>11</title><path d="M59.23022,20.8858a4.41016,4.41016,0,1,0,3.11835,5.40137A4.41016,4.41016,0,0,0,59.23022,20.8858Z"/><path d="M59.77338,66.72046l-.06543.02295c-4.16175,1.49676-9.47913,4.77582-8.30335.38782l8.051-30.04657c1.12072-4.18262-5.08338-3.98871-8.947-2.39728-3.93811,1.62219-9.2367,5.90637-12.43836,8.68286a1.64343,1.64343,0,0,0,1.55683,2.8139l.06543-.023c4.16168-1.49676,9.47906-4.77581,8.30328-.38781L39.945,75.82c-1.12073,4.18261,5.08325,3.9887,8.94665,2.39727C52.83,76.595,58.1286,72.31085,61.33,69.53436A1.64335,1.64335,0,0,0,59.77338,66.72046Z"/><path d="M50,5A45,45,0,1,0,95,50,45,45,0,0,0,50,5Zm0,85A40,40,0,1,1,90,50,40.04527,40.04527,0,0,1,50,90Z"/><text x="0" y="115" fill="#000000" font-size="5px" font-weight="bold" font-family="'Helvetica Neue', Helvetica, Arial-Unicode, Arial, Sans-serif">Created by Markus</text><text x="0" y="120" fill="#000000" font-size="5px" font-weight="bold" font-family="'Helvetica Neue', Helvetica, Arial-Unicode, Arial, Sans-serif">from the Noun Project</text></svg>