<svg xmlns="http://www.w3.org/2000/svg" data-name="Layer 1" viewBox="0 0 100 125" x="0px" y="0px"><title>All</title><path d="M45,46.66c-0.3-.08-0.56-0.15-0.83-0.21a4.83,4.83,0,0,1-4.06-5.21,4.91,4.91,0,0,1,5-4.55c1.42,0,2.85.09,4.26,0,2.77-.22,5.51,1.7,5.48,5.5,0,4.48,0,9,0,13.44s0,8.89,0,13.33c0,0.31,0,.62,0,1l0.9,0.2a4.94,4.94,0,0,1-.85,9.8q-5,.08-10,0a4.93,4.93,0,0,1-1-9.77c0.3-.07.61-0.12,1-0.2V46.66Z"/><path d="M41.73,26.62A6.73,6.73,0,0,1,48.41,20a6.66,6.66,0,0,1,6.47,6.66A6.57,6.57,0,1,1,41.73,26.62Z"/><path d="M50.16,0c27.45,0.09,50,22.66,49.84,49.92A50.14,50.14,0,0,1,49.8,100C22.33,100.05-.13,77.31,0,49.56A50,50,0,0,1,50.16,0Zm0.23,9.46A40.42,40.42,0,0,0,9.58,49.91C9.33,72,27.66,90.44,49.81,90.49a40.48,40.48,0,0,0,40.57-40.7C90.25,27.64,72.25,9.49,50.39,9.46Z"/><text x="0" y="115" fill="#000000" font-size="5px" font-weight="bold" font-family="'Helvetica Neue', Helvetica, Arial-Unicode, Arial, Sans-serif">Created by i cons</text><text x="0" y="120" fill="#000000" font-size="5px" font-weight="bold" font-family="'Helvetica Neue', Helvetica, Arial-Unicode, Arial, Sans-serif">from the Noun Project</text></svg>