<?xml version="1.0" encoding="utf-8"?>
<!-- Generator: Adobe Illustrator 23.0.3, SVG Export Plug-In . SVG Version: 6.00 Build 0)  -->
<svg version="1.1" id="Ebene_1" xmlns="http://www.w3.org/2000/svg" xmlns:xlink="http://www.w3.org/1999/xlink" x="0px" y="0px"
	 viewBox="0 0 1875.14 841.89" style="enable-background:new 0 0 1875.14 841.89;" xml:space="preserve">
<style type="text/css">
	.st0{fill:none;stroke:#000000;stroke-width:3.2;}
	.st1{fill:none;stroke:#000000;stroke-width:4.8;}
	.st2{fill:none;stroke:#000000;stroke-width:1.2;}
</style>
<path d="M694.08,626.38c-2.35,0-4.28-0.78-5.91-2.38c-1.63-1.59-2.42-3.53-2.42-5.95c0-2.33,0.79-4.24,2.41-5.83
	c1.63-1.6,3.57-2.38,5.91-2.38h43.71c3.06,0,5.95-1.15,8.59-3.43l6.84-5.88c2.69-2.04,4.1-4.85,4.1-8.3v-35.01l-3.01,3.03
	c-9.06,9.14-17.93,13.77-26.36,13.77h-15.49c-7.53,0-14.42-2.64-20.46-7.86l-7.54-6.71c-2.3-1.93-4.31-4.79-5.99-8.53
	c-1.69-3.75-2.55-7.47-2.55-11.04v-33.38c0-4.47,0.86-8.76,2.56-12.76c1.68-3.96,3.68-6.93,5.94-8.82l8.3-7.1
	c5.57-4.82,12.21-7.26,19.75-7.26h14.53c7.45,0,14.34,2.68,20.46,7.97l10.12,8.55l-0.49-8.07c0.01-2.15,0.82-4.06,2.49-5.74
	c1.67-1.67,3.58-2.49,5.84-2.49c2.35,0,4.33,0.8,6.04,2.46c1.69,1.63,2.52,3.55,2.52,5.87v113.1c0,8.11-3.18,14.87-9.73,20.66
	l-8.15,7.07c-1.91,1.69-4.69,3.2-8.27,4.48c-3.6,1.28-6.98,1.93-10.03,1.93H694.08z M712.69,487.21c-3.38,0-6.63,1.32-9.67,3.9
	l-6.22,5.15c-2.82,2.35-4.24,5.55-4.24,9.52v33.62c0,3.23,1.53,6.25,4.54,8.99l6.61,5.89c2.43,2.06,5.03,3.09,7.77,3.09h16.45
	c2.81,0,5.86-1.35,9.05-4.01l15.98-13.58c2.89-2.51,4.34-5.63,4.34-9.26v-15.25c0-4.21-1.63-7.7-4.84-10.36l-16.43-14.03
	c-2.59-2.42-5.9-3.67-9.79-3.67H712.69z M1722.44,583.15c-2.34,0-4.27-0.79-5.9-2.43c-1.63-1.63-2.43-3.57-2.43-5.9v-95.7
	c0-2.35,0.8-4.33,2.45-6.04c1.63-1.69,3.55-2.52,5.88-2.52c2.33,0,4.25,0.81,5.88,2.47c1.64,1.68,2.44,3.67,2.44,6.09v16.42
	l19.35-16.53c6.44-5.45,12.76-8.22,18.79-8.22h14.77c7.91,0,14.49,2.74,20.13,8.37c5.63,5.63,8.37,12.21,8.37,20.13v5.41
	c0,2.43-0.8,4.42-2.44,6.09c-1.63,1.66-3.56,2.47-5.88,2.47c-2.34,0-4.27-0.79-5.9-2.43c-1.63-1.63-2.43-3.56-2.43-5.9v-5.64
	c0-3.27-1.16-6.09-3.46-8.39c-2.29-2.3-5.11-3.46-8.39-3.46h-13.09c-3.22,0-6.76,1.64-10.51,4.87l-29.31,25.38v57.12
	c0,2.33-0.81,4.26-2.47,5.89C1726.62,582.35,1724.7,583.15,1722.44,583.15z M1602.37,583.15c-3.3,0-6.82-0.71-10.48-2.1
	c-3.67-1.4-6.38-2.85-8.06-4.31l-8.99-7.92c-2.64-2.11-4.84-5.05-6.59-8.79c-1.76-3.74-2.66-7.21-2.66-10.3V503.5
	c0-2.37,0.98-5.72,2.9-9.96c1.92-4.2,4.35-7.5,7.24-9.79l8.4-6.6c5.2-4.22,11.01-6.35,17.28-6.35h28.34
	c6.63,0,13.01,2.83,18.97,8.41l7.55,7.19c5.07,4.55,7.62,11.46,7.62,20.58v24.37c0,2.26-0.81,4.17-2.48,5.84
	c-1.67,1.67-3.58,2.49-5.84,2.49h-73.08v7.65c0,3.98,1.72,7.39,5.1,10.13l5.87,4.9c3.55,2.76,6.98,4.13,10.25,4.13h51.87
	c2.26,0,4.18,0.8,5.85,2.44c1.66,1.63,2.47,3.56,2.47,5.88c0,2.26-0.83,4.16-2.53,5.83c-1.71,1.68-3.61,2.5-5.79,2.5H1602.37z
	 M1602.85,487.7c-3.53,0-6.78,1.23-9.66,3.66l-5.88,4.92c-3.02,2.29-4.59,5.38-4.59,9.15v17.37h64.76v-15.81
	c0-4.27-1.38-7.63-4.09-9.98l-5.88-5.15c-3.45-2.81-6.48-4.16-9.32-4.16H1602.85z M1436.2,583.15c-2.33,0-4.25-0.83-5.88-2.52
	c-1.65-1.72-2.45-3.69-2.45-6.04c0-2.26,0.8-4.18,2.44-5.85c1.63-1.66,3.56-2.47,5.89-2.47h21.93V443.75h-22.17
	c-2.34,0-4.27-0.79-5.9-2.42c-1.63-1.63-2.42-3.56-2.42-5.9c0-2.34,0.79-4.27,2.43-5.9c1.63-1.63,3.56-2.42,5.9-2.42h30.74
	c2.26,0,4.17,0.81,5.84,2.48c1.67,1.67,2.48,3.58,2.48,5.84v130.83h22.18c2.25,0,4.16,0.82,5.84,2.49c1.67,1.68,2.49,3.59,2.49,5.84
	c0,2.35-0.8,4.33-2.46,6.04c-1.63,1.69-3.55,2.52-5.87,2.52H1436.2z M1287.92,583.15c-2.33,0-4.25-0.83-5.88-2.52
	c-1.65-1.72-2.45-3.69-2.45-6.04c0-2.26,0.8-4.18,2.44-5.85c1.63-1.66,3.56-2.47,5.89-2.47h21.93V443.75h-22.18
	c-2.34,0-4.27-0.79-5.9-2.42c-1.64-1.63-2.43-3.56-2.43-5.9c0-2.34,0.79-4.27,2.43-5.9c1.63-1.63,3.56-2.42,5.9-2.42h30.74
	c2.26,0,4.17,0.81,5.84,2.49c1.67,1.67,2.48,3.58,2.48,5.84v130.83h22.17c2.26,0,4.17,0.82,5.84,2.49c1.67,1.67,2.48,3.58,2.48,5.84
	c0,2.35-0.8,4.33-2.45,6.04c-1.63,1.69-3.55,2.52-5.88,2.52H1287.92z M1157.53,583.15c-3.3,0-6.83-0.71-10.48-2.1
	c-3.67-1.4-6.38-2.85-8.06-4.31l-8.99-7.92c-2.64-2.11-4.84-5.05-6.6-8.79c-1.76-3.75-2.65-7.21-2.65-10.3V503.5
	c0-2.38,0.98-5.73,2.9-9.96c1.92-4.21,4.35-7.5,7.24-9.8l8.4-6.6c5.2-4.22,11.01-6.35,17.28-6.35h28.34
	c6.63,0,13.01,2.83,18.97,8.41l7.56,7.19c5.07,4.55,7.62,11.46,7.62,20.58v24.37c0,2.26-0.81,4.17-2.48,5.84
	c-1.67,1.67-3.58,2.48-5.84,2.48h-73.08v7.65c0,3.98,1.72,7.39,5.09,10.13l5.87,4.9c3.55,2.76,6.98,4.13,10.25,4.13h51.87
	c2.26,0,4.17,0.8,5.85,2.44c1.66,1.63,2.47,3.56,2.47,5.88c0,2.25-0.83,4.16-2.53,5.83c-1.71,1.68-3.61,2.5-5.79,2.5H1157.53z
	 M1158.01,487.7c-3.53,0-6.78,1.23-9.66,3.66l-5.88,4.92c-3.02,2.29-4.59,5.39-4.59,9.15v17.37h64.76v-15.81
	c0-4.28-1.38-7.63-4.09-9.98l-5.87-5.15c-3.45-2.81-6.48-4.16-9.33-4.16H1158.01z M832.75,583.15c-2.34,0-4.27-0.79-5.9-2.43
	c-1.63-1.63-2.42-3.57-2.42-5.9v-95.7c0-2.35,0.8-4.33,2.45-6.04c1.63-1.69,3.55-2.52,5.88-2.52c2.33,0,4.26,0.81,5.89,2.47
	c1.64,1.67,2.43,3.67,2.43,6.09v16.42l19.35-16.53c6.44-5.45,12.76-8.22,18.79-8.22h14.77c7.91,0,14.5,2.74,20.13,8.37
	c5.63,5.63,8.37,12.22,8.37,20.13v5.41c0,2.42-0.8,4.42-2.44,6.09c-1.63,1.66-3.56,2.47-5.89,2.47c-2.34,0-4.27-0.79-5.9-2.43
	c-1.63-1.63-2.43-3.56-2.43-5.9v-5.64c0-3.27-1.16-6.09-3.46-8.39c-2.3-2.3-5.12-3.46-8.39-3.46H880.9c-3.27,0-6.71,1.59-10.52,4.87
	l-29.31,25.38v57.12c0,2.33-0.81,4.26-2.47,5.89C836.93,582.35,835.02,583.15,832.75,583.15z M1009.73,582.91
	c-8.7,0-17.19-3.78-25.22-11.23c-7.99-7.42-12.04-15.37-12.04-23.62v-42.63c0-8.26,3.96-16.22,11.76-23.64
	c7.83-7.45,16.41-11.22,25.5-11.22c0,0,23.66,0,23.67,0c8.91,0,17.19,3.64,25.16,10.83c8.1,7.3,12.21,15.38,12.21,24.03v42.63
	c0,8.48-4.11,16.49-12.21,23.79c-8.15,7.35-16.62,11.07-25.18,11.07H1009.73z M1012.25,487.21c-4.98,0-8.92,1.24-11.72,3.67
	l-6.84,5.88c-2.87,2.41-4.33,5.61-4.33,9.5v40.83c0,4.22,1.55,7.63,4.61,10.13l7.53,6.46c2,1.72,4.77,2.58,8.23,2.58h23.41
	c3.87,0,7.41-1.4,10.53-4.16l6.12-5.4c2.83-2.19,4.31-5.37,4.31-9.36v-40.82c0-4.56-1.48-8.02-4.4-10.28l-7.06-5.63
	c-2.69-2.24-5.89-3.39-9.5-3.39H1012.25z"/>
<g id="XMLID_3_">
	<g>
		<polygon points="121.95,501.95 56.86,434.87 56.85,439.46 56.28,439.46 56.28,416.43 56.86,416.43 139.46,501.88 139.46,502.45 
			117.51,502.45 117.51,501.97 		"/>
		<path d="M134.12,513.9H68.16c-6.56,0-11.87,5.31-11.88,11.87h-0.6v133.96c0,3.48,0.35,6.82,2.76,9.33l1.15-1.1l115.98,120.96
			c1.12,1.17,2.67,1.83,4.29,1.83h232.57c1.61,0,3.16-0.65,4.28-1.81l113.65-117.58c1.07-1.11,1.67-2.59,1.67-4.13V561.12
			c0-3.28-2.66-5.94-5.94-5.94H181.43c-6.43,0-12.57-2.6-17.05-7.21l1.14-1.11l-31.4-32.36V513.9z M170.32,531.52
			c4.48,4.62,10.64,7.24,17.09,7.24h338.68c3.28,0,5.94-2.66,5.94-5.94v-358.6c0-1.54-0.6-3.03-1.68-4.13L416.7,53.01
			c-1.11-1.15-2.65-1.8-4.26-1.8H179.85c-1.62,0-3.16,0.65-4.28,1.81L59.62,172.98l-1.16-1.12c-2.37,2.45-2.72,5.96-2.78,9.36v43.6
			c0,1.3,0.81,2.31,1.84,2.73c1.03,0.43,2.31,0.29,3.23-0.63l-0.42-0.43h0.01l68.78-68.78c4.46-4.46,10.5-6.96,16.81-6.96h160.64
			c6.3,0,12.34,2.5,16.8,6.96l77.67,77.67c4.46,4.46,6.96,10.5,6.96,16.8V412.8c0,6.31-2.52,12.37-6.99,16.83l-77.65,77.34
			c-4.45,4.44-10.48,6.93-16.77,6.93h-150.5v0.59l-4.44,0.01l17.52,18.12l1.15-1.11V531.52z M548.4,168.05V673.9
			c0,1.54-0.6,3.02-1.67,4.13L423.16,805.87c-1.13,1.16-2.67,1.82-4.28,1.82h-245c-1.6,0-3.14-0.65-4.26-1.8L47.75,680.8l1.7-1.68
			c-1.72-1.77-4.49-4.17-4.49-6.64V175.24c0-5.54,3.97-10.84,7.82-14.83l-1.73-1.66L169.62,36.08c1.12-1.15,2.66-1.81,4.28-1.81
			h244.98c1.61,0,3.15,0.66,4.28,1.81l123.57,127.85C547.8,165.03,548.4,166.52,548.4,168.05z M396.2,408.5V256.51
			c0-6.32-2.52-12.38-7-16.84l-70.49-70.19c-4.45-4.44-10.48-6.93-16.77-6.93H150.22c-6.3,0-12.35,2.51-16.8,6.97l-73.66,73.65
			c-2.23,2.23-3.48,5.25-3.48,8.4v164.86v23.03v51.11c0,6.56,5.32,11.88,11.88,11.88h49.35h21.95h162.48
			c6.29,0,12.32-2.49,16.77-6.92l70.49-70.19C393.68,420.88,396.2,414.82,396.2,408.5z"/>
		<path d="M60.75,666.86l-1.16,1.1l-1.15,1.1c-2.41-2.51-2.76-5.85-2.76-9.33h1.21C56.89,662.39,58.91,664.94,60.75,666.86z"/>
		<polygon points="156.09,514.49 171.47,530.4 170.32,531.51 169.17,532.62 151.65,514.5 		"/>
		<polygon points="56.86,411.83 143.89,501.86 139.46,501.88 56.86,416.43 		"/>
		<path d="M44.96,672.48c0,2.47,2.77,4.87,4.49,6.64l-1.7,1.68l-1.71,1.69c-2.06-2.12-2.27-4.83-2.27-7.72
			c0-0.75,0.01-1.52,0.01-2.29H44.96z"/>
		<path d="M60.78,174.09c-1.82,1.87-3.85,4.53-3.89,7.13h-1.21c0.06-3.4,0.41-6.91,2.78-9.36l1.16,1.12L60.78,174.09z"/>
		<path d="M57.96,226.45c0.63,0.27,1.37,0.19,1.95-0.39l0.42,0.43l0.42,0.43c-0.92,0.92-2.2,1.06-3.23,0.63
			c-1.03-0.42-1.84-1.43-1.84-2.73h1.21C56.89,225.64,57.34,226.2,57.96,226.45z"/>
		<polygon points="164.38,547.97 163.23,549.09 129.67,514.5 134.12,514.5 165.52,546.86 		"/>
		<path d="M51.05,158.75l1.73,1.66c-3.85,3.99-7.82,9.29-7.82,14.83h-1.18c0-6.78,0.83-13.28,5.54-18.16L51.05,158.75z"/>
		<polygon points="56.86,434.87 121.95,501.95 117.51,501.97 56.85,439.46 		"/>
		<rect x="55.68" y="181.22" width="1.21" height="43.6"/>
		<polygon points="56.28,525.77 56.89,525.77 56.89,659.73 55.68,659.73 55.68,525.77 		"/>
		<rect x="43.78" y="175.24" width="1.18" height="497.24"/>
	</g>
	<g>
		<line class="st0" x1="530.35" y1="170.09" x2="416.7" y2="53.01"/>
		<line class="st0" x1="175.57" y1="53.02" x2="59.62" y2="172.98"/>
		<line class="st0" x1="412.44" y1="51.21" x2="179.85" y2="51.21"/>
		<path class="st0" d="M170.32,531.52c4.48,4.62,10.64,7.24,17.09,7.24"/>
		<line class="st0" x1="187.41" y1="538.76" x2="526.09" y2="538.76"/>
		<line class="st0" x1="532.03" y1="532.82" x2="532.03" y2="174.22"/>
		<line class="st1" x1="51.05" y1="158.75" x2="169.62" y2="36.08"/>
		<line class="st1" x1="173.9" y1="34.27" x2="418.88" y2="34.27"/>
		<line class="st1" x1="423.16" y1="36.08" x2="546.73" y2="163.93"/>
		<line class="st1" x1="548.4" y1="168.05" x2="548.4" y2="673.9"/>
		<line class="st1" x1="546.73" y1="678.03" x2="423.16" y2="805.87"/>
		<line class="st1" x1="418.88" y1="807.69" x2="173.88" y2="807.69"/>
		<line class="st1" x1="169.62" y1="805.89" x2="47.75" y2="680.8"/>
		<line class="st0" x1="59.59" y1="667.96" x2="175.57" y2="788.92"/>
		<line class="st0" x1="179.86" y1="790.75" x2="412.43" y2="790.75"/>
		<line class="st0" x1="416.71" y1="788.94" x2="530.36" y2="671.36"/>
		<line class="st0" x1="532.03" y1="667.23" x2="532.03" y2="561.12"/>
		<line class="st0" x1="526.09" y1="555.18" x2="181.43" y2="555.18"/>
		<path class="st0" d="M164.38,547.97c4.48,4.61,10.62,7.21,17.05,7.21"/>
		<path class="st1" d="M169.62,805.89c1.12,1.15,2.66,1.8,4.26,1.8"/>
		<path class="st1" d="M418.88,807.69c1.61,0,3.15-0.66,4.28-1.82"/>
		<path class="st1" d="M546.73,678.03c1.07-1.11,1.67-2.59,1.67-4.13"/>
		<path class="st0" d="M412.43,790.75c1.61,0,3.16-0.65,4.28-1.81"/>
		<path class="st0" d="M175.57,788.92c1.12,1.17,2.67,1.83,4.29,1.83"/>
		<path class="st0" d="M530.36,671.36c1.07-1.11,1.67-2.59,1.67-4.13"/>
		<path class="st0" d="M532.03,561.12c0-3.28-2.66-5.94-5.94-5.94"/>
		<path class="st0" d="M526.09,538.76c3.28,0,5.94-2.66,5.94-5.94"/>
		<path class="st1" d="M548.4,168.05c0-1.53-0.6-3.02-1.67-4.12"/>
		<path class="st0" d="M532.03,174.22c0-1.54-0.6-3.03-1.68-4.13"/>
		<path class="st0" d="M416.7,53.01c-1.11-1.15-2.65-1.8-4.26-1.8"/>
		<path class="st1" d="M423.16,36.08c-1.13-1.15-2.67-1.81-4.28-1.81"/>
		<path class="st1" d="M173.9,34.27c-1.62,0-3.16,0.66-4.28,1.81"/>
		<path class="st0" d="M179.85,51.21c-1.62,0-3.16,0.65-4.28,1.81"/>
		<path class="st2" d="M396.2,256.51c0-6.32-2.52-12.38-7-16.84"/>
		<line class="st2" x1="389.2" y1="239.67" x2="318.71" y2="169.48"/>
		<path class="st2" d="M318.71,169.48c-4.45-4.44-10.48-6.93-16.77-6.93"/>
		<line class="st2" x1="301.94" y1="162.55" x2="150.22" y2="162.55"/>
		<path class="st2" d="M150.22,162.55c-6.3,0-12.35,2.51-16.8,6.97"/>
		<line class="st2" x1="133.42" y1="169.52" x2="59.76" y2="243.17"/>
		<path class="st2" d="M59.76,243.17c-2.23,2.23-3.48,5.25-3.48,8.4"/>
		<polyline class="st2" points="56.28,251.57 56.28,416.43 56.28,439.46 56.28,490.57 		"/>
		<path class="st2" d="M56.28,490.57c0,6.56,5.32,11.88,11.88,11.88"/>
		<path class="st2" d="M301.94,502.45c6.29,0,12.32-2.49,16.77-6.92"/>
		<line class="st2" x1="318.71" y1="495.53" x2="389.2" y2="425.34"/>
		<path class="st2" d="M389.2,425.34c4.48-4.46,7-10.52,7-16.84"/>
		<line class="st2" x1="396.2" y1="408.5" x2="396.2" y2="256.51"/>
		<path class="st2" d="M408,252.18c0-6.3-2.5-12.34-6.96-16.8"/>
		<line class="st2" x1="401.04" y1="235.38" x2="323.37" y2="157.71"/>
		<path class="st2" d="M323.37,157.71c-4.46-4.46-10.5-6.96-16.8-6.96"/>
		<line class="st2" x1="306.57" y1="150.75" x2="145.93" y2="150.75"/>
		<path class="st2" d="M145.93,150.75c-6.31,0-12.35,2.5-16.81,6.96"/>
		<line class="st2" x1="129.12" y1="157.71" x2="60.34" y2="226.49"/>
		<path class="st2" d="M68.16,513.9c-6.56,0-11.87,5.31-11.88,11.87v0.01"/>
		<path class="st2" d="M306.59,513.9c6.29,0,12.32-2.49,16.77-6.93"/>
		<line class="st2" x1="323.36" y1="506.97" x2="401.01" y2="429.63"/>
		<path class="st2" d="M401.01,429.63c4.47-4.46,6.99-10.52,6.99-16.83"/>
		<line class="st2" x1="408" y1="412.8" x2="408" y2="252.18"/>
		<polyline class="st2" points="68.16,502.45 117.51,502.45 139.46,502.45 301.94,502.45 		"/>
		<polyline class="st2" points="68.16,513.9 134.12,513.9 156.09,513.9 306.59,513.9 		"/>
	</g>
</g>
<path d="M680.68,419.67c-1.35,0-2.36-0.42-3.37-1.41c-0.98-0.96-1.39-1.96-1.39-3.36V269.81c0-1.25,0.41-2.19,1.37-3.15
	c0.97-0.97,1.98-1.37,3.4-1.37c1.24,0,2.19,0.41,3.15,1.37c0.96,0.96,1.37,1.91,1.37,3.15v21.29l9.85-10.98
	c8.69-9.69,17.1-14.59,24.99-14.59h4.72c5.82,0,11.1,2.15,16.13,6.58l16.99,14.69c6.18,5.37,9.19,12.02,9.19,20.31v31.73
	c0,8.36-3.28,15.24-10.02,21.03l-16.6,14.29c-4.57,4.17-10.14,6.14-17.15,6.14h-4.48c-6.41,0-11.68-2.15-16.11-6.58l-17.52-17.51
	v58.68c0,1.42-0.41,2.48-1.35,3.44C682.93,419.27,681.98,419.67,680.68,419.67z M718.83,274.82c-3.93,0-8.02,2.31-12.88,7.27
	l-15.08,14.95c-3.77,3.77-5.67,8.13-5.67,12.97v26.04c0,4.69,2.07,9.13,6.14,13.2l14.65,14.65c4.78,4.78,9.22,7.1,13.56,7.1h5.21
	c3.92,0,7.86-1.74,11.74-5.18l15.85-13.91c3.79-2.98,5.92-7.48,5.92-12.84v-32.82c0-3.41-1.13-8.42-6.5-12.93l-17.03-14.61
	c-2.95-2.58-6.32-3.91-9.97-3.91H718.83z M1807.77,375.83c-1.47,0-2.7-0.45-3.84-1.43l-57.82-50.24l-16.4,13.78v33.37
	c0,1.33-0.39,2.29-1.31,3.21c-0.92,0.92-1.88,1.31-3.22,1.31c-1.34,0-2.3-0.39-3.21-1.31c-0.93-0.93-1.32-1.89-1.32-3.22V230.93
	c0-1.44,0.41-2.47,1.35-3.44c0.92-0.93,1.87-1.33,3.18-1.33s2.25,0.4,3.17,1.33c0.94,0.96,1.35,2.02,1.35,3.44v95.29l64.04-54.42
	c1.27-1.05,2.55-1.56,3.97-1.56c1.34,0,2.29,0.39,3.15,1.32c0.95,1.01,1.37,2.08,1.37,3.48c0,1.67-0.55,2.37-1.14,2.88l-47.67,40.25
	l57.51,50.49c0.96,0.78,1.24,1.37,1.24,2.42c0,1.25-0.44,2.3-1.45,3.41C1809.86,375.44,1809,375.83,1807.77,375.83z M1589.92,375.83
	c-6.35,0-11.57-1.82-15.96-5.55l-19.69-17.16c-5.08-4.24-7.51-9.79-7.51-17.06v-26.52c-0.26-7.1,2.58-13,8.69-18.24l17.82-15.39
	c4.62-3.77,9.47-5.65,14.72-5.65h45.66c1.33,0,2.3,0.39,3.22,1.32c0.91,0.91,1.31,1.88,1.31,3.21c0,1.39-0.38,2.36-1.27,3.24
	c-0.93,0.91-1.9,1.29-3.25,1.29h-43.72c-4.14,0-8.03,1.57-11.58,4.66l-16.31,13.89c-3.91,3.32-5.98,7.95-5.98,13.38v24.83
	c0,4.28,1.75,8.09,5.05,11.01l18,15.33c3.21,2.87,7.49,4.38,12.62,4.38h41.66c1.27,0,2.22,0.41,3.2,1.35
	c0.93,0.92,1.33,1.87,1.33,3.17c0,1.33-0.39,2.3-1.31,3.21c-0.92,0.92-1.88,1.31-3.22,1.31H1589.92z M1202.8,375.83
	c-1.33,0-2.29-0.39-3.21-1.31c-0.93-0.93-1.32-1.89-1.32-3.22v-96.53c0-1.36,0.43-2.41,1.39-3.41c0.91-0.95,1.85-1.36,3.13-1.36
	c1.31,0,2.26,0.4,3.18,1.33c0.93,0.96,1.35,2.02,1.35,3.44v24.96l25.9-22.12c5.77-4.88,11.3-7.37,16.44-7.37h14.9
	c6.9,0,12.65,2.39,17.56,7.31c4.92,4.92,7.31,10.67,7.31,17.57v5.45c0,1.42-0.41,2.48-1.35,3.44c-0.92,0.94-1.87,1.33-3.18,1.33
	c-1.33,0-2.3-0.39-3.22-1.32c-0.91-0.91-1.31-1.88-1.31-3.21v-5.69c0-4.3-1.6-8.17-4.62-11.19c-3.03-3.03-6.9-4.63-11.2-4.63h-13.2
	c-4.26,0-8.56,1.91-13.13,5.85l-30.91,26.77v59.38c0,1.31-0.4,2.26-1.33,3.18C1205.03,375.43,1204.07,375.83,1202.8,375.83z
	 M1069.62,375.83c-6.92,0-12.71-2.4-17.72-7.33c-4.98-4.91-7.4-10.65-7.4-17.54V279.3h-16.06c-1.36,0-2.33-0.39-3.25-1.29
	c-0.89-0.87-1.27-1.84-1.27-3.24c0-1.33,0.39-2.3,1.32-3.22c0.91-0.91,1.88-1.31,3.21-1.31h16.31v-30.6c0-1.33,0.39-2.3,1.32-3.22
	c0.91-0.91,1.88-1.31,3.21-1.31c0.79,0,1.86,0.16,3.13,1.41c0.98,0.96,1.39,1.89,1.39,3.12v30.6h46.58c1.24,0,2.19,0.41,3.15,1.37
	c0.96,0.96,1.37,1.9,1.37,3.15c0,1.31-0.4,2.26-1.33,3.17c-0.97,0.95-1.93,1.36-3.2,1.36h-46.82v71.65c0,4.25,1.65,8.11,4.78,11.18
	c3.1,3.04,7,4.64,11.28,4.64h19.86c7.93,0,13.68-4.54,16.18-12.79c1.45-4.77,3.52-4.77,4.89-4.77c1.83,0,2.67,0.62,3.26,1.23
	c0.59,0.61,1.27,1.58,1.27,3.54c0,4.61-2.39,9.48-7.12,14.47c-4.7,4.96-10.59,7.38-18,7.38H1069.62z M936.79,375.83
	c-1.42,0-2.48-0.41-3.43-1.35c-0.94-0.92-1.34-1.87-1.34-3.18v-9.89l-24.41,14.42h-32.9c-7.08,0-12.92-2.39-17.84-7.31
	c-4.92-4.92-7.32-10.74-7.32-17.81v-11.87c0-6.98,2.41-12.79,7.38-17.74c4.97-4.96,10.79-7.38,17.78-7.38h39.9
	c1.19,0,3.57,0.22,8.18,1.3l7.05,1.64l-0.36-21.65c0-4.21-1.6-8.08-4.63-11.11c-3.03-3.02-6.9-4.62-11.21-4.62h-38.71
	c-1.25,0-2.2-0.41-3.17-1.38c-0.96-0.96-1.37-1.91-1.37-3.15c0-1.33,0.39-2.29,1.32-3.22c0.92-0.92,1.89-1.31,3.23-1.31h38.69
	c6.92,0,12.66,2.36,17.55,7.2c4.92,4.88,7.41,10.71,7.61,17.83l2.54,76.21c0,1.12-0.4,2.07-1.33,2.99
	C939.02,375.43,938.06,375.83,936.79,375.83z M874.67,323.27c-4.3,0-8.18,1.6-11.2,4.62c-3.03,3.03-4.63,6.9-4.63,11.2v11.38
	c0,4.23,1.62,8.08,4.69,11.14c3.07,3.06,6.92,4.68,11.14,4.68h30.26l26.54-15.5l-0.85-12.1c-0.11-4.08-1.73-7.92-4.67-10.87
	c-2.99-2.98-6.84-4.56-11.14-4.56H874.67z M1386.85,375.59c-1.33,0-2.29-0.39-3.21-1.31c-0.92-0.92-1.31-1.89-1.31-3.22
	c0-1.27,0.41-2.22,1.35-3.2c0.92-0.93,1.86-1.33,3.17-1.33h26.48V279.3h-26.24c-1.31,0-2.26-0.4-3.18-1.33
	c-0.94-0.97-1.35-1.93-1.35-3.2c0-1.36,0.43-2.41,1.39-3.41c0.91-0.95,1.85-1.36,3.13-1.36h31c1.28,0,2.22,0.41,3.14,1.36
	c0.96,1,1.39,2.05,1.39,3.41v91.76h26c1.36,0,2.41,0.43,3.42,1.39c0.95,0.91,1.35,1.85,1.35,3.13c0,1.31-0.4,2.26-1.34,3.18
	c-0.97,0.95-1.92,1.35-3.19,1.35H1386.85z M1407.2,235.22c-1.35,0-2.31-0.41-3.22-1.37c-1.21-1.28-1.34-2.26-1.31-2.97l0.24-8.99
	c0-1.48,0.4-2.44,1.32-3.36c0.92-0.92,1.88-1.31,3.21-1.31h10.66c1.33,0,2.3,0.39,3.22,1.31c0.92,0.92,1.31,1.88,1.31,3.21v8.72
	c0,1.36-0.43,2.41-1.39,3.42c-0.91,0.95-1.85,1.35-3.13,1.35H1407.2z"/>
</svg>
