<?xml version="1.0" encoding="utf-8"?>
<!-- Generator: Adobe Illustrator 23.0.3, SVG Export Plug-In . SVG Version: 6.00 Build 0)  -->
<svg version="1.1" id="Ebene_1" xmlns="http://www.w3.org/2000/svg" xmlns:xlink="http://www.w3.org/1999/xlink" x="0px" y="0px"
	 viewBox="0 0 597.42 841.89" style="enable-background:new 0 0 597.42 841.89;" xml:space="preserve">
<style type="text/css">
	.st0{fill:none;stroke:#000000;stroke-width:3.2;}
	.st1{fill:none;stroke:#000000;stroke-width:4.8;}
	.st2{fill:none;stroke:#000000;stroke-width:1.2;}
</style>
<g id="XMLID_3_">
	<g>
		<polygon points="121.95,501.95 56.86,434.87 56.85,439.46 56.28,439.46 56.28,416.43 56.86,416.43 139.46,501.88 139.46,502.45 
			117.51,502.45 117.51,501.97 		"/>
		<path d="M134.12,513.9H68.16c-6.56,0-11.87,5.31-11.88,11.87h-0.6v133.96c0,3.48,0.35,6.82,2.76,9.33l1.15-1.1l115.98,120.96
			c1.12,1.17,2.67,1.83,4.29,1.83h232.57c1.61,0,3.16-0.65,4.28-1.81l113.65-117.58c1.07-1.11,1.67-2.59,1.67-4.13V561.12
			c0-3.28-2.66-5.94-5.94-5.94H181.43c-6.43,0-12.57-2.6-17.05-7.21l1.14-1.11l-31.4-32.36V513.9z M170.32,531.52
			c4.48,4.62,10.64,7.24,17.09,7.24h338.68c3.28,0,5.94-2.66,5.94-5.94v-358.6c0-1.54-0.6-3.03-1.68-4.13L416.7,53.01
			c-1.11-1.15-2.65-1.8-4.26-1.8H179.85c-1.62,0-3.16,0.65-4.28,1.81L59.62,172.98l-1.16-1.12c-2.37,2.45-2.72,5.96-2.78,9.36v43.6
			c0,1.3,0.81,2.31,1.84,2.73c1.03,0.43,2.31,0.29,3.23-0.63l-0.42-0.43h0.01l68.78-68.78c4.46-4.46,10.5-6.96,16.81-6.96h160.64
			c6.3,0,12.34,2.5,16.8,6.96l77.67,77.67c4.46,4.46,6.96,10.5,6.96,16.8V412.8c0,6.31-2.52,12.37-6.99,16.83l-77.65,77.34
			c-4.45,4.44-10.48,6.93-16.77,6.93h-150.5v0.59l-4.44,0.01l17.52,18.12l1.15-1.11V531.52z M548.4,168.05V673.9
			c0,1.54-0.6,3.02-1.67,4.13L423.16,805.87c-1.13,1.16-2.67,1.82-4.28,1.82h-245c-1.6,0-3.14-0.65-4.26-1.8L47.75,680.8l1.7-1.68
			c-1.72-1.77-4.49-4.17-4.49-6.64V175.24c0-5.54,3.97-10.84,7.82-14.83l-1.73-1.66L169.62,36.08c1.12-1.15,2.66-1.81,4.28-1.81
			h244.98c1.61,0,3.15,0.66,4.28,1.81l123.57,127.85C547.8,165.03,548.4,166.52,548.4,168.05z M396.2,408.5V256.51
			c0-6.32-2.52-12.38-7-16.84l-70.49-70.19c-4.45-4.44-10.48-6.93-16.77-6.93H150.22c-6.3,0-12.35,2.51-16.8,6.97l-73.66,73.65
			c-2.23,2.23-3.48,5.25-3.48,8.4v164.86v23.03v51.11c0,6.56,5.32,11.88,11.88,11.88h49.35h21.95h162.48
			c6.29,0,12.32-2.49,16.77-6.92l70.49-70.19C393.68,420.88,396.2,414.82,396.2,408.5z"/>
		<path d="M60.75,666.86l-1.16,1.1l-1.15,1.1c-2.41-2.51-2.76-5.85-2.76-9.33h1.21C56.89,662.39,58.91,664.94,60.75,666.86z"/>
		<polygon points="156.09,514.49 171.47,530.4 170.32,531.51 169.17,532.62 151.65,514.5 		"/>
		<polygon points="56.86,411.83 143.89,501.86 139.46,501.88 56.86,416.43 		"/>
		<path d="M44.96,672.48c0,2.47,2.77,4.87,4.49,6.64l-1.7,1.68l-1.71,1.69c-2.06-2.12-2.27-4.83-2.27-7.72
			c0-0.75,0.01-1.52,0.01-2.29H44.96z"/>
		<path d="M60.78,174.09c-1.82,1.87-3.85,4.53-3.89,7.13h-1.21c0.06-3.4,0.41-6.91,2.78-9.36l1.16,1.12L60.78,174.09z"/>
		<path d="M57.96,226.45c0.63,0.27,1.37,0.19,1.95-0.39l0.42,0.43l0.42,0.43c-0.92,0.92-2.2,1.06-3.23,0.63
			c-1.03-0.42-1.84-1.43-1.84-2.73h1.21C56.89,225.64,57.34,226.2,57.96,226.45z"/>
		<polygon points="164.38,547.97 163.23,549.09 129.67,514.5 134.12,514.5 165.52,546.86 		"/>
		<path d="M51.05,158.75l1.73,1.66c-3.85,3.99-7.82,9.29-7.82,14.83h-1.18c0-6.78,0.83-13.28,5.54-18.16L51.05,158.75z"/>
		<polygon points="56.86,434.87 121.95,501.95 117.51,501.97 56.85,439.46 		"/>
		<rect x="55.68" y="181.22" width="1.21" height="43.6"/>
		<polygon points="56.28,525.77 56.89,525.77 56.89,659.73 55.68,659.73 55.68,525.77 		"/>
		<rect x="43.78" y="175.24" width="1.18" height="497.24"/>
	</g>
	<g>
		<line class="st0" x1="530.35" y1="170.09" x2="416.7" y2="53.01"/>
		<line class="st0" x1="175.57" y1="53.02" x2="59.62" y2="172.98"/>
		<line class="st0" x1="412.44" y1="51.21" x2="179.85" y2="51.21"/>
		<path class="st0" d="M170.32,531.52c4.48,4.62,10.64,7.24,17.09,7.24"/>
		<line class="st0" x1="187.41" y1="538.76" x2="526.09" y2="538.76"/>
		<line class="st0" x1="532.03" y1="532.82" x2="532.03" y2="174.22"/>
		<line class="st1" x1="51.05" y1="158.75" x2="169.62" y2="36.08"/>
		<line class="st1" x1="173.9" y1="34.27" x2="418.88" y2="34.27"/>
		<line class="st1" x1="423.16" y1="36.08" x2="546.73" y2="163.93"/>
		<line class="st1" x1="548.4" y1="168.05" x2="548.4" y2="673.9"/>
		<line class="st1" x1="546.73" y1="678.03" x2="423.16" y2="805.87"/>
		<line class="st1" x1="418.88" y1="807.69" x2="173.88" y2="807.69"/>
		<line class="st1" x1="169.62" y1="805.89" x2="47.75" y2="680.8"/>
		<line class="st0" x1="59.59" y1="667.96" x2="175.57" y2="788.92"/>
		<line class="st0" x1="179.86" y1="790.75" x2="412.43" y2="790.75"/>
		<line class="st0" x1="416.71" y1="788.94" x2="530.36" y2="671.36"/>
		<line class="st0" x1="532.03" y1="667.23" x2="532.03" y2="561.12"/>
		<line class="st0" x1="526.09" y1="555.18" x2="181.43" y2="555.18"/>
		<path class="st0" d="M164.38,547.97c4.48,4.61,10.62,7.21,17.05,7.21"/>
		<path class="st1" d="M169.62,805.89c1.12,1.15,2.66,1.8,4.26,1.8"/>
		<path class="st1" d="M418.88,807.69c1.61,0,3.15-0.66,4.28-1.82"/>
		<path class="st1" d="M546.73,678.03c1.07-1.11,1.67-2.59,1.67-4.13"/>
		<path class="st0" d="M412.43,790.75c1.61,0,3.16-0.65,4.28-1.81"/>
		<path class="st0" d="M175.57,788.92c1.12,1.17,2.67,1.83,4.29,1.83"/>
		<path class="st0" d="M530.36,671.36c1.07-1.11,1.67-2.59,1.67-4.13"/>
		<path class="st0" d="M532.03,561.12c0-3.28-2.66-5.94-5.94-5.94"/>
		<path class="st0" d="M526.09,538.76c3.28,0,5.94-2.66,5.94-5.94"/>
		<path class="st1" d="M548.4,168.05c0-1.53-0.6-3.02-1.67-4.12"/>
		<path class="st0" d="M532.03,174.22c0-1.54-0.6-3.03-1.68-4.13"/>
		<path class="st0" d="M416.7,53.01c-1.11-1.15-2.65-1.8-4.26-1.8"/>
		<path class="st1" d="M423.16,36.08c-1.13-1.15-2.67-1.81-4.28-1.81"/>
		<path class="st1" d="M173.9,34.27c-1.62,0-3.16,0.66-4.28,1.81"/>
		<path class="st0" d="M179.85,51.21c-1.62,0-3.16,0.65-4.28,1.81"/>
		<path class="st2" d="M396.2,256.51c0-6.32-2.52-12.38-7-16.84"/>
		<line class="st2" x1="389.2" y1="239.67" x2="318.71" y2="169.48"/>
		<path class="st2" d="M318.71,169.48c-4.45-4.44-10.48-6.93-16.77-6.93"/>
		<line class="st2" x1="301.94" y1="162.55" x2="150.22" y2="162.55"/>
		<path class="st2" d="M150.22,162.55c-6.3,0-12.35,2.51-16.8,6.97"/>
		<line class="st2" x1="133.42" y1="169.52" x2="59.76" y2="243.17"/>
		<path class="st2" d="M59.76,243.17c-2.23,2.23-3.48,5.25-3.48,8.4"/>
		<polyline class="st2" points="56.28,251.57 56.28,416.43 56.28,439.46 56.28,490.57 		"/>
		<path class="st2" d="M56.28,490.57c0,6.56,5.32,11.88,11.88,11.88"/>
		<path class="st2" d="M301.94,502.45c6.29,0,12.32-2.49,16.77-6.92"/>
		<line class="st2" x1="318.71" y1="495.53" x2="389.2" y2="425.34"/>
		<path class="st2" d="M389.2,425.34c4.48-4.46,7-10.52,7-16.84"/>
		<line class="st2" x1="396.2" y1="408.5" x2="396.2" y2="256.51"/>
		<path class="st2" d="M408,252.18c0-6.3-2.5-12.34-6.96-16.8"/>
		<line class="st2" x1="401.04" y1="235.38" x2="323.37" y2="157.71"/>
		<path class="st2" d="M323.37,157.71c-4.46-4.46-10.5-6.96-16.8-6.96"/>
		<line class="st2" x1="306.57" y1="150.75" x2="145.93" y2="150.75"/>
		<path class="st2" d="M145.93,150.75c-6.31,0-12.35,2.5-16.81,6.96"/>
		<line class="st2" x1="129.12" y1="157.71" x2="60.34" y2="226.49"/>
		<path class="st2" d="M68.16,513.9c-6.56,0-11.87,5.31-11.88,11.87v0.01"/>
		<path class="st2" d="M306.59,513.9c6.29,0,12.32-2.49,16.77-6.93"/>
		<line class="st2" x1="323.36" y1="506.97" x2="401.01" y2="429.63"/>
		<path class="st2" d="M401.01,429.63c4.47-4.46,6.99-10.52,6.99-16.83"/>
		<line class="st2" x1="408" y1="412.8" x2="408" y2="252.18"/>
		<polyline class="st2" points="68.16,502.45 117.51,502.45 139.46,502.45 301.94,502.45 		"/>
		<polyline class="st2" points="68.16,513.9 134.12,513.9 156.09,513.9 306.59,513.9 		"/>
	</g>
</g>
</svg>
