<?xml version="1.0" encoding="utf-8"?>
<!-- Generator: Adobe Illustrator 23.0.3, SVG Export Plug-In . SVG Version: 6.00 Build 0)  -->
<svg version="1.1" id="Ebene_1" xmlns="http://www.w3.org/2000/svg" xmlns:xlink="http://www.w3.org/1999/xlink" x="0px" y="0px"
	 viewBox="0 0 595.28 841.89" style="enable-background:new 0 0 595.28 841.89;" xml:space="preserve">
<style type="text/css">
	.st0{fill:none;stroke:#000000;stroke-width:3.2;}
	.st1{clip-path:url(#SVGID_2_);fill:none;stroke:#000000;stroke-width:3.2;}
	.st2{clip-path:url(#SVGID_2_);fill:none;stroke:#000000;stroke-width:4.8;}
	.st3{clip-path:url(#SVGID_4_);fill:none;stroke:#000000;stroke-width:4.8;}
	.st4{clip-path:url(#SVGID_4_);fill:none;stroke:#000000;stroke-width:3.2;}
	.st5{fill:none;stroke:#000000;stroke-width:1.2;}
</style>
<g>
	<path d="M81.78,376.82c-0.38,0-0.69-0.12-0.95-0.38c-0.26-0.26-0.39-0.57-0.39-0.96c0-0.38,0.13-0.68,0.39-0.94
		c0.26-0.26,0.57-0.38,0.95-0.38h7.04c0.49,0,0.96-0.19,1.38-0.55l1.1-0.95c0.43-0.33,0.66-0.78,0.66-1.34v-5.64l-0.48,0.49
		c-1.46,1.47-2.89,2.22-4.25,2.22h-2.5c-1.21,0-2.32-0.43-3.3-1.27l-1.21-1.08c-0.37-0.31-0.69-0.77-0.96-1.37
		c-0.27-0.6-0.41-1.2-0.41-1.78v-5.38c0-0.72,0.14-1.41,0.41-2.06c0.27-0.64,0.59-1.12,0.96-1.42l1.34-1.14
		c0.9-0.78,1.97-1.17,3.18-1.17h2.34c1.2,0,2.31,0.43,3.3,1.28l1.63,1.38l-0.08-1.3c0-0.35,0.13-0.65,0.4-0.92
		c0.27-0.27,0.58-0.4,0.94-0.4c0.38,0,0.7,0.13,0.97,0.4c0.27,0.26,0.41,0.57,0.41,0.95v18.22c0,1.31-0.51,2.4-1.57,3.33l-1.31,1.14
		c-0.31,0.27-0.76,0.51-1.33,0.72c-0.58,0.21-1.12,0.31-1.62,0.31H81.78z M84.78,354.4c-0.54,0-1.07,0.21-1.56,0.63l-1,0.83
		c-0.45,0.38-0.68,0.89-0.68,1.53v5.42c0,0.52,0.25,1.01,0.73,1.45l1.07,0.95c0.39,0.33,0.81,0.5,1.25,0.5h2.65
		c0.45,0,0.94-0.22,1.46-0.65l2.57-2.19c0.46-0.4,0.7-0.91,0.7-1.49v-2.46c0-0.68-0.26-1.24-0.78-1.67l-2.65-2.26
		c-0.42-0.39-0.95-0.59-1.58-0.59H84.78z M247.42,369.86c-0.38,0-0.69-0.13-0.95-0.39c-0.26-0.26-0.39-0.57-0.39-0.95V353.1
		c0-0.38,0.13-0.7,0.39-0.97c0.26-0.27,0.57-0.41,0.95-0.41c0.38,0,0.69,0.13,0.95,0.4c0.26,0.27,0.39,0.59,0.39,0.98v2.65
		l3.12-2.66c1.04-0.88,2.06-1.32,3.03-1.32h2.38c1.27,0,2.33,0.44,3.24,1.35c0.91,0.91,1.35,1.97,1.35,3.24v0.87
		c0,0.39-0.13,0.71-0.39,0.98c-0.26,0.27-0.57,0.4-0.95,0.4c-0.38,0-0.69-0.13-0.95-0.39c-0.26-0.26-0.39-0.57-0.39-0.95v-0.91
		c0-0.53-0.19-0.98-0.56-1.35c-0.37-0.37-0.82-0.56-1.35-0.56h-2.11c-0.52,0-1.09,0.26-1.69,0.78l-4.72,4.09v9.2
		c0,0.38-0.13,0.69-0.4,0.95C248.09,369.73,247.78,369.86,247.42,369.86z M228.08,369.86c-0.53,0-1.1-0.11-1.69-0.34
		c-0.59-0.23-1.03-0.46-1.3-0.69l-1.45-1.28c-0.43-0.34-0.78-0.81-1.06-1.42c-0.28-0.6-0.43-1.16-0.43-1.66v-7.45
		c0-0.38,0.16-0.92,0.47-1.6c0.31-0.68,0.7-1.21,1.17-1.58l1.35-1.06c0.84-0.68,1.77-1.02,2.78-1.02h4.56c1.07,0,2.1,0.46,3.06,1.35
		l1.22,1.16c0.82,0.73,1.23,1.85,1.23,3.31v3.93c0,0.36-0.13,0.67-0.4,0.94c-0.27,0.27-0.58,0.4-0.94,0.4h-11.77v1.23
		c0,0.64,0.28,1.19,0.82,1.63l0.94,0.79c0.57,0.44,1.12,0.67,1.65,0.67h8.35c0.36,0,0.67,0.13,0.94,0.39
		c0.27,0.26,0.4,0.57,0.4,0.95c0,0.36-0.13,0.67-0.41,0.94c-0.28,0.27-0.58,0.4-0.93,0.4H228.08z M228.16,354.48
		c-0.57,0-1.09,0.2-1.56,0.59l-0.95,0.79c-0.49,0.37-0.74,0.87-0.74,1.47v2.8h10.43v-2.55c0-0.69-0.22-1.23-0.66-1.61l-0.95-0.83
		c-0.56-0.45-1.04-0.67-1.5-0.67H228.16z M201.31,369.86c-0.37,0-0.68-0.13-0.95-0.41c-0.27-0.28-0.39-0.59-0.39-0.97
		c0-0.36,0.13-0.67,0.39-0.94c0.26-0.27,0.57-0.4,0.95-0.4h3.53V347.4h-3.57c-0.38,0-0.69-0.13-0.95-0.39
		c-0.26-0.26-0.39-0.57-0.39-0.95c0-0.38,0.13-0.69,0.39-0.95c0.26-0.26,0.57-0.39,0.95-0.39h4.95c0.36,0,0.67,0.13,0.94,0.4
		c0.27,0.27,0.4,0.58,0.4,0.94v21.07h3.57c0.36,0,0.67,0.13,0.94,0.4c0.27,0.27,0.4,0.58,0.4,0.94c0,0.38-0.13,0.7-0.4,0.97
		c-0.26,0.27-0.57,0.41-0.95,0.41H201.31z M177.43,369.86c-0.37,0-0.68-0.13-0.95-0.41c-0.27-0.28-0.39-0.59-0.39-0.97
		c0-0.36,0.13-0.67,0.39-0.94c0.26-0.27,0.57-0.4,0.95-0.4h3.53V347.4h-3.57c-0.38,0-0.69-0.13-0.95-0.39
		c-0.26-0.26-0.39-0.57-0.39-0.95c0-0.38,0.13-0.69,0.39-0.95c0.26-0.26,0.57-0.39,0.95-0.39h4.95c0.36,0,0.67,0.13,0.94,0.4
		c0.27,0.27,0.4,0.58,0.4,0.94v21.07h3.57c0.36,0,0.67,0.13,0.94,0.4c0.27,0.27,0.4,0.58,0.4,0.94c0,0.38-0.13,0.7-0.39,0.97
		c-0.26,0.27-0.57,0.41-0.95,0.41H177.43z M156.43,369.86c-0.53,0-1.1-0.11-1.69-0.34c-0.59-0.23-1.03-0.46-1.3-0.69l-1.45-1.28
		c-0.43-0.34-0.78-0.81-1.06-1.42c-0.28-0.6-0.43-1.16-0.43-1.66v-7.45c0-0.38,0.16-0.92,0.47-1.6c0.31-0.68,0.7-1.21,1.17-1.58
		l1.35-1.06c0.84-0.68,1.77-1.02,2.78-1.02h4.56c1.07,0,2.1,0.46,3.06,1.35l1.22,1.16c0.82,0.73,1.23,1.85,1.23,3.31v3.93
		c0,0.36-0.13,0.67-0.4,0.94c-0.27,0.27-0.58,0.4-0.94,0.4h-11.77v1.23c0,0.64,0.28,1.19,0.82,1.63l0.94,0.79
		c0.57,0.44,1.12,0.67,1.65,0.67H165c0.36,0,0.67,0.13,0.94,0.39c0.27,0.26,0.4,0.57,0.4,0.95c0,0.36-0.13,0.67-0.41,0.94
		c-0.28,0.27-0.58,0.4-0.93,0.4H156.43z M156.5,354.48c-0.57,0-1.09,0.2-1.56,0.59l-0.95,0.79c-0.49,0.37-0.74,0.87-0.74,1.47v2.8
		h10.43v-2.55c0-0.69-0.22-1.23-0.66-1.61l-0.95-0.83c-0.56-0.45-1.04-0.67-1.5-0.67H156.5z M104.12,369.86
		c-0.38,0-0.69-0.13-0.95-0.39c-0.26-0.26-0.39-0.57-0.39-0.95V353.1c0-0.38,0.13-0.7,0.39-0.97c0.26-0.27,0.57-0.41,0.95-0.41
		c0.38,0,0.69,0.13,0.95,0.4c0.26,0.27,0.39,0.59,0.39,0.98v2.65l3.12-2.66c1.04-0.88,2.06-1.32,3.03-1.32h2.38
		c1.27,0,2.33,0.44,3.24,1.35c0.91,0.91,1.35,1.97,1.35,3.24v0.87c0,0.39-0.13,0.71-0.39,0.98c-0.26,0.27-0.57,0.4-0.95,0.4
		c-0.38,0-0.69-0.13-0.95-0.39c-0.26-0.26-0.39-0.57-0.39-0.95v-0.91c0-0.53-0.19-0.98-0.56-1.35c-0.37-0.37-0.83-0.56-1.35-0.56
		h-2.11c-0.53,0-1.08,0.26-1.69,0.78l-4.72,4.09v9.2c0,0.38-0.13,0.69-0.4,0.95C104.79,369.73,104.48,369.86,104.12,369.86z
		 M132.62,369.82c-1.4,0-2.77-0.61-4.06-1.81c-1.29-1.2-1.94-2.48-1.94-3.81v-6.87c0-1.33,0.64-2.61,1.89-3.81
		c1.26-1.2,2.64-1.81,4.11-1.81c0,0,3.81,0,3.81,0c1.44,0,2.77,0.59,4.05,1.74c1.3,1.18,1.97,2.48,1.97,3.87v6.87
		c0,1.37-0.66,2.66-1.97,3.83c-1.31,1.18-2.68,1.78-4.06,1.78H132.62z M133.03,354.4c-0.8,0-1.44,0.2-1.89,0.59l-1.1,0.95
		c-0.46,0.39-0.7,0.9-0.7,1.53v6.58c0,0.68,0.25,1.23,0.74,1.63l1.21,1.04c0.32,0.28,0.77,0.42,1.33,0.42h3.77
		c0.62,0,1.19-0.23,1.7-0.67l0.99-0.87c0.46-0.35,0.69-0.86,0.69-1.51v-6.58c0-0.73-0.24-1.29-0.71-1.66l-1.14-0.91
		c-0.43-0.36-0.95-0.55-1.53-0.55H133.03z"/>
	<path d="M43.78,672.48c0,3.72-0.34,7.34,2.26,10.01l3.41-3.36c-1.73-1.77-4.49-4.17-4.49-6.64H43.78z"/>
	<path d="M55.68,659.73c0,3.48,0.35,6.82,2.76,9.33l2.31-2.21c-1.84-1.91-3.86-4.47-3.86-7.12H55.68z"/>
	<path d="M58.46,171.86c-2.38,2.45-2.72,5.96-2.79,9.36c0,0.14,0-0.13,0,0h1.21c0-0.13,0,0.19,0,0c0.04-2.6,2.07-5.26,3.89-7.13
		L58.46,171.86z"/>
	<path class="st0" d="M530.35,170.09L416.7,53.01 M412.44,51.21H179.85 M175.57,53.02L59.62,172.98"/>
	<polygon points="56.86,411.83 56.86,416.43 139.46,501.88 143.89,501.86 	"/>
	<g>
		<defs>
			<rect id="SVGID_1_" x="43" y="31.89" width="508" height="779.8"/>
		</defs>
		<clipPath id="SVGID_2_">
			<use xlink:href="#SVGID_1_"  style="overflow:visible;"/>
		</clipPath>
		<path class="st1" d="M170.32,531.52c4.48,4.63,10.64,7.25,17.09,7.25 M187.41,538.76h338.68 M532.03,532.82v-358.6"/>
		<path class="st2" d="M51.05,158.75L169.62,36.08 M173.9,34.27h244.99 M423.16,36.08l123.58,127.85 M548.4,168.05V673.9
			 M546.73,678.03L423.16,805.87 M418.88,807.69h-245 M169.62,805.89L47.75,680.8"/>
	</g>
	<path class="st0" d="M59.59,667.96l115.98,120.96 M179.86,790.75h232.58 M416.71,788.94l113.66-117.58 M532.03,667.23V561.12
		 M526.09,555.18H181.43 M164.37,547.97c4.48,4.61,10.63,7.21,17.05,7.21"/>
	<polygon points="134.12,514.5 129.67,514.5 163.23,549.09 165.52,546.86 	"/>
	<path d="M49.32,157.08c-4.72,4.88-5.55,11.38-5.54,18.16h1.18c0-5.54,3.96-10.84,7.82-14.83L49.32,157.08z"/>
	<polygon points="156.09,514.49 151.65,514.5 169.17,532.62 171.47,530.4 	"/>
	<polygon points="56.86,434.87 56.85,439.46 117.51,501.97 121.95,501.95 	"/>
	<g>
		<defs>
			<rect id="SVGID_3_" x="43" y="31.89" width="508" height="779.8"/>
		</defs>
		<clipPath id="SVGID_4_">
			<use xlink:href="#SVGID_3_"  style="overflow:visible;"/>
		</clipPath>
		<path class="st3" d="M169.62,805.89c1.12,1.15,2.65,1.8,4.25,1.8 M418.88,807.69c1.61,0,3.15-0.66,4.27-1.81 M546.73,678.03
			c1.07-1.11,1.67-2.59,1.67-4.13"/>
		<path class="st4" d="M412.43,790.75c1.61,0,3.15-0.65,4.27-1.81 M175.57,788.92c1.12,1.17,2.67,1.83,4.29,1.83 M530.36,671.36
			c1.07-1.11,1.67-2.59,1.67-4.13 M532.03,561.12c0-3.28-2.66-5.94-5.94-5.94 M526.09,538.76c3.28,0,5.94-2.66,5.94-5.94"/>
		<path class="st3" d="M548.4,168.05c0-1.54-0.6-3.02-1.67-4.12"/>
		<path class="st4" d="M532.03,174.22c0-1.55-0.6-3.03-1.68-4.14 M416.7,53.01c-1.12-1.15-2.66-1.8-4.26-1.8"/>
		<path class="st3" d="M423.16,36.08c-1.12-1.16-2.66-1.81-4.27-1.81 M173.9,34.27c-1.61,0-3.15,0.66-4.27,1.81"/>
	</g>
	<path class="st0" d="M179.85,51.21c-1.61,0-3.15,0.65-4.27,1.81"/>
	<path class="st5" d="M396.2,256.51c0-6.32-2.52-12.38-7-16.84 M389.2,239.67l-70.49-70.19 M318.71,169.48
		c-4.45-4.44-10.48-6.93-16.77-6.93 M301.94,162.55H150.22 M150.22,162.55c-6.3,0-12.35,2.5-16.8,6.96 M133.42,169.52l-73.66,73.66
		 M59.76,243.17c-2.23,2.23-3.48,5.25-3.48,8.4 M56.28,251.57v239 M56.28,490.57c0,6.56,5.32,11.88,11.88,11.88 M301.94,502.45
		c6.29,0,12.32-2.49,16.77-6.93 M318.71,495.53l70.49-70.19 M389.2,425.34c4.48-4.46,7-10.52,7-16.84 M396.2,408.5V256.51
		 M408,252.18c0-6.3-2.5-12.35-6.96-16.8 M401.04,235.38l-77.68-77.68 M323.37,157.71c-4.46-4.46-10.5-6.96-16.8-6.96
		 M306.57,150.75H145.93 M145.93,150.75c-6.3,0-12.35,2.5-16.81,6.96 M129.12,157.71l-68.79,68.78"/>
	<path d="M55.68,224.82c0,1.3,0.81,2.31,1.84,2.73c1.03,0.43,2.31,0.28,3.23-0.63l-0.84-0.86c-0.58,0.58-1.32,0.66-1.94,0.39
		c-0.62-0.26-1.08-0.81-1.08-1.63L55.68,224.82L55.68,224.82z"/>
	<rect x="55.68" y="181.22" width="1.21" height="43.6"/>
	<rect x="43.78" y="175.24" width="1.18" height="497.24"/>
	<rect x="55.68" y="525.77" width="1.21" height="133.96"/>
	<path class="st5" d="M68.16,513.9c-6.56,0-11.88,5.32-11.88,11.88 M306.59,513.9c6.29,0,12.32-2.49,16.77-6.93 M323.36,506.97
		l77.64-77.34 M401.01,429.63c4.48-4.46,6.99-10.52,6.99-16.84 M408,412.8V252.18 M68.16,502.45h233.78 M68.16,513.9h238.43"/>
	<path d="M80.27,326.73c-0.22,0-0.38-0.07-0.54-0.23c-0.16-0.15-0.22-0.31-0.22-0.54V302.8c0-0.2,0.07-0.35,0.22-0.5
		c0.15-0.15,0.32-0.22,0.54-0.22c0.2,0,0.35,0.07,0.5,0.22c0.15,0.15,0.22,0.3,0.22,0.5v3.4l1.57-1.75
		c1.39-1.55,2.73-2.33,3.99-2.33h0.75c0.93,0,1.77,0.34,2.58,1.05l2.71,2.35c0.99,0.86,1.47,1.92,1.47,3.24v5.07
		c0,1.34-0.52,2.43-1.6,3.36l-2.65,2.28c-0.73,0.67-1.62,0.98-2.74,0.98h-0.72c-1.02,0-1.87-0.34-2.57-1.05l-2.8-2.8v9.37
		c0,0.23-0.07,0.4-0.22,0.55C80.63,326.67,80.48,326.73,80.27,326.73z M86.36,303.6c-0.63,0-1.28,0.37-2.06,1.16l-2.41,2.39
		c-0.6,0.6-0.91,1.3-0.91,2.07v4.16c0,0.75,0.33,1.46,0.98,2.11l2.34,2.34c0.76,0.76,1.47,1.13,2.17,1.13h0.83
		c0.63,0,1.26-0.28,1.87-0.83l2.53-2.22c0.61-0.48,0.95-1.19,0.95-2.05v-5.24c0-0.54-0.18-1.34-1.04-2.06l-2.72-2.33
		c-0.47-0.41-1.01-0.62-1.59-0.62H86.36z M260.25,319.73c-0.24,0-0.43-0.07-0.61-0.23l-9.23-8.02l-2.62,2.2v5.33
		c0,0.21-0.06,0.36-0.21,0.51c-0.15,0.15-0.3,0.21-0.51,0.21c-0.21,0-0.37-0.06-0.51-0.21c-0.15-0.15-0.21-0.3-0.21-0.51v-22.41
		c0-0.23,0.06-0.39,0.22-0.55c0.15-0.15,0.3-0.21,0.51-0.21s0.36,0.06,0.51,0.21c0.15,0.15,0.22,0.32,0.22,0.55v15.22l10.23-8.69
		c0.2-0.17,0.41-0.25,0.63-0.25c0.21,0,0.36,0.06,0.5,0.21c0.15,0.16,0.22,0.33,0.22,0.55c0,0.27-0.09,0.38-0.18,0.46l-7.61,6.43
		l9.18,8.06c0.15,0.12,0.2,0.22,0.2,0.39c0,0.2-0.07,0.37-0.23,0.54C260.58,319.67,260.45,319.73,260.25,319.73z M225.46,319.73
		c-1.01,0-1.85-0.29-2.55-0.89l-3.14-2.74c-0.81-0.68-1.2-1.56-1.2-2.72v-4.24c-0.04-1.13,0.41-2.08,1.39-2.91l2.85-2.46
		c0.74-0.6,1.51-0.9,2.35-0.9h7.29c0.21,0,0.37,0.06,0.51,0.21c0.15,0.15,0.21,0.3,0.21,0.51c0,0.22-0.06,0.38-0.2,0.52
		c-0.15,0.14-0.3,0.21-0.52,0.21h-6.98c-0.66,0-1.28,0.25-1.85,0.74l-2.6,2.22c-0.62,0.53-0.96,1.27-0.96,2.14v3.96
		c0,0.68,0.28,1.29,0.81,1.76l2.88,2.45c0.51,0.46,1.2,0.7,2.02,0.7h6.65c0.2,0,0.36,0.06,0.51,0.22c0.15,0.15,0.21,0.3,0.21,0.51
		c0,0.21-0.06,0.37-0.21,0.51c-0.15,0.15-0.3,0.21-0.51,0.21H225.46z M163.65,319.73c-0.21,0-0.37-0.06-0.51-0.21
		c-0.15-0.15-0.21-0.3-0.21-0.51v-15.41c0-0.22,0.07-0.39,0.22-0.54c0.15-0.15,0.3-0.22,0.5-0.22c0.21,0,0.36,0.06,0.51,0.21
		c0.15,0.15,0.22,0.32,0.22,0.55v3.99l4.14-3.53c0.92-0.78,1.81-1.18,2.63-1.18h2.38c1.1,0,2.02,0.38,2.8,1.17
		c0.79,0.79,1.17,1.7,1.17,2.81v0.87c0,0.23-0.07,0.4-0.22,0.55c-0.15,0.15-0.3,0.21-0.51,0.21c-0.21,0-0.37-0.06-0.51-0.21
		c-0.15-0.15-0.21-0.3-0.21-0.51v-0.91c0-0.69-0.26-1.3-0.74-1.79c-0.48-0.48-1.1-0.74-1.79-0.74h-2.11c-0.68,0-1.37,0.31-2.1,0.93
		l-4.94,4.27v9.48c0,0.21-0.06,0.36-0.21,0.51C164,319.67,163.85,319.73,163.65,319.73z M142.38,319.73c-1.1,0-2.03-0.38-2.83-1.17
		c-0.8-0.78-1.18-1.7-1.18-2.8v-11.44h-2.57c-0.22,0-0.37-0.06-0.52-0.21c-0.14-0.14-0.2-0.29-0.2-0.52c0-0.21,0.06-0.37,0.21-0.51
		c0.15-0.15,0.3-0.21,0.51-0.21h2.6v-4.89c0-0.21,0.06-0.37,0.21-0.51c0.15-0.15,0.3-0.21,0.51-0.21c0.13,0,0.3,0.03,0.5,0.23
		c0.16,0.15,0.22,0.3,0.22,0.5v4.89h7.44c0.2,0,0.35,0.07,0.5,0.22c0.15,0.15,0.22,0.3,0.22,0.5c0,0.21-0.06,0.36-0.21,0.51
		c-0.16,0.15-0.31,0.22-0.51,0.22h-7.48v11.44c0,0.68,0.26,1.3,0.76,1.78c0.49,0.49,1.12,0.74,1.8,0.74h3.17
		c1.27,0,2.18-0.73,2.58-2.04c0.23-0.76,0.56-0.76,0.78-0.76c0.29,0,0.43,0.1,0.52,0.2c0.09,0.1,0.2,0.25,0.2,0.56
		c0,0.74-0.38,1.51-1.14,2.31c-0.75,0.79-1.69,1.18-2.87,1.18H142.38z M121.17,319.73c-0.23,0-0.4-0.07-0.55-0.21
		c-0.15-0.15-0.21-0.3-0.21-0.51v-1.58l-3.9,2.3h-5.25c-1.13,0-2.06-0.38-2.85-1.17c-0.79-0.79-1.17-1.72-1.17-2.84v-1.9
		c0-1.12,0.39-2.04,1.18-2.83c0.79-0.79,1.72-1.18,2.84-1.18h6.37c0.19,0,0.57,0.04,1.31,0.21l1.13,0.26l-0.06-3.46
		c0-0.67-0.26-1.29-0.74-1.77c-0.48-0.48-1.1-0.74-1.79-0.74h-6.18c-0.2,0-0.35-0.07-0.51-0.22c-0.15-0.15-0.22-0.3-0.22-0.5
		c0-0.21,0.06-0.37,0.21-0.51c0.15-0.15,0.3-0.21,0.52-0.21h6.18c1.1,0,2.02,0.38,2.8,1.15c0.79,0.78,1.18,1.71,1.22,2.85
		l0.41,12.17c0,0.18-0.06,0.33-0.21,0.48C121.52,319.67,121.37,319.73,121.17,319.73z M111.25,311.34c-0.69,0-1.31,0.26-1.79,0.74
		c-0.48,0.48-0.74,1.1-0.74,1.79v1.82c0,0.68,0.26,1.29,0.75,1.78c0.49,0.49,1.1,0.75,1.78,0.75h4.83l4.24-2.48l-0.14-1.93
		c-0.02-0.65-0.28-1.27-0.75-1.74c-0.48-0.48-1.09-0.73-1.78-0.73H111.25z M193.04,319.69c-0.21,0-0.37-0.06-0.51-0.21
		c-0.15-0.15-0.21-0.3-0.21-0.51c0-0.2,0.06-0.36,0.22-0.51c0.15-0.15,0.3-0.21,0.51-0.21h4.23v-13.93h-4.19
		c-0.21,0-0.36-0.06-0.51-0.21c-0.15-0.15-0.22-0.31-0.22-0.51c0-0.22,0.07-0.39,0.22-0.55c0.15-0.15,0.3-0.22,0.5-0.22h4.95
		c0.21,0,0.35,0.06,0.5,0.22c0.15,0.16,0.22,0.33,0.22,0.54v14.65h4.15c0.22,0,0.39,0.07,0.55,0.22c0.15,0.15,0.22,0.3,0.22,0.5
		c0,0.21-0.06,0.36-0.21,0.51c-0.15,0.15-0.31,0.22-0.51,0.22H193.04z M196.29,297.28c-0.21,0-0.37-0.07-0.51-0.22
		c-0.19-0.2-0.21-0.36-0.21-0.47l0.04-1.44c0-0.24,0.06-0.39,0.21-0.54c0.15-0.15,0.3-0.21,0.51-0.21h1.7
		c0.21,0,0.37,0.06,0.51,0.21c0.15,0.15,0.21,0.3,0.21,0.51v1.39c0,0.22-0.07,0.39-0.22,0.55c-0.15,0.15-0.3,0.22-0.5,0.22H196.29z"
		/>
</g>
</svg>
